<?xml version="1.0" encoding="utf-8"?>
<!-- Generator: Adobe Illustrator 26.0.0, SVG Export Plug-In . SVG Version: 6.00 Build 0)  -->
<svg version="1.1" xmlns="http://www.w3.org/2000/svg" xmlns:xlink="http://www.w3.org/1999/xlink" x="0px" y="0px" width="40.8px"
	 height="40px" viewBox="0 0 40.8 40" style="enable-background:new 0 0 40.8 40;" xml:space="preserve">
<style type="text/css">
	.st0{display:none;}
	.st1{display:inline;fill:#DD0505;}
	.st2{display:none;fill:#FFFFFF;}
	.st3{fill:#FFFFFF;}
	.st4{fill:#F9F9F9;}
</style>
<g id="Layer_2" class="st0">
	<rect class="st1" width="40.8" height="40"/>
</g>
<g id="Layer_1">
	<path class="st2" d="M222.8,482.8c-168.7,0-336.8,0-505,0c0-240.3,0-480.7,0-721c286.7,0,573.3,0,860,0c0,240.3,0,480.7,0,721
		C459.6,482.8,341.4,482.8,222.8,482.8 M445.8,239.3c18.7-48.6,25.8-98.8,20.1-150.7c-4.7-42.7-17.2-82.8-38-120.3
		c-32.4-58.2-78.4-102.3-137.7-132c-52.1-26.1-107.5-37-165.8-32.6c-24,1.8-47.5,6-70.4,13.1C-9.9-163.3-62.6-127-104-74.6
		c-41.6,52.7-63.8,113.1-68,180c-1.7,27.5,0.4,54.9,6.2,81.9c16.7,77.5,56.1,141.1,119.1,189.2c67.3,51.4,143.6,72.7,228.1,64.3
		c37.6-3.8,73.4-14,107.2-30.9C362.2,373,414.4,316.2,445.8,239.3z"/>
	<path class="st3" d="M24.4,25.5c1.3,1.3,2.5,2.5,3.9,3.9c-0.7,0.3-1.4,0.5-2.1,0.8c-1.8,0.6-3.5,0.2-5.1-0.5
		c-2.1-0.9-4-2.2-5.6-3.8c-2.3-2.1-4-4.6-5.1-7.6C9.6,16,9.8,14.5,11,12.1c0.1,0.1,0.1,0.1,0.2,0.1c1.5,1.5,3.1,3.1,4.6,4.6
		c0.1,0.1,0.2,0.2,0.1,0.4c-0.5,0.9-0.4,1.8,0.1,2.6c0.5,0.7,1,1.4,1.6,2c0.8,0.8,1.7,1.6,2.6,2.4c0.6,0.5,1.4,0.8,2.3,0.6
		c0.2-0.1,0.4-0.1,0.6-0.2s0.3-0.1,0.4,0.1C23.8,24.8,24.1,25.1,24.4,25.5z"/>
	<path class="st3" d="M13.6,12.5c-0.6-0.6-1.2-1.2-1.7-1.7c1.4-2,3.6-1.7,4.8-0.2c0.7,0.9,1.2,1.9,1.3,3.1c0.1,0.8-0.1,1.5-0.7,2.1
		c-0.2,0.2-0.3,0.2-0.5,0C15.8,14.6,14.7,13.5,13.6,12.5z"/>
	<path class="st3" d="M29.7,23.6c0.9,0.8,1.3,1.8,1.2,2.9c-0.1,0.4-0.3,0.7-0.5,1s-0.5,0.6-0.7,0.8c-1.8-1.8-3.5-3.5-5.2-5.2
		c0.3-0.6,1.2-1,2.2-0.9C27.8,22.4,28.8,22.9,29.7,23.6z"/>
	<path class="st3" d="M23.7,24c0.1-0.1,0.2-0.2,0.2-0.2c1.7,1.7,3.4,3.4,5.1,5.1c-0.1,0.1-0.3,0.2-0.4,0.3c-0.1-0.1-0.1-0.1-0.2-0.2
		c-1.5-1.5-3.1-3.1-4.6-4.6C23.7,24.2,23.5,24.2,23.7,24z"/>
	<path class="st4" d="M11.9,12.5c-0.3-0.3-0.5-0.5-0.8-0.7c0.1-0.2,0.2-0.3,0.3-0.5c1.7,1.7,3.4,3.4,5.1,5.1
		c-0.1,0.1-0.2,0.2-0.4,0.3C14.8,15.3,13.4,13.9,11.9,12.5z"/>
</g>
</svg>
