<?xml version="1.0" encoding="utf-8"?>
<!-- Generator: Adobe Illustrator 26.0.0, SVG Export Plug-In . SVG Version: 6.00 Build 0)  -->
<svg version="1.1" id="Layer_1" xmlns="http://www.w3.org/2000/svg" xmlns:xlink="http://www.w3.org/1999/xlink" x="0px" y="0px"
	 width="40.8px" height="40px" viewBox="0 0 40.8 40" style="enable-background:new 0 0 40.8 40;" xml:space="preserve">
<style type="text/css">
	.st0{display:none;fill:#FFFFFF;}
	.st1{fill:#59B3B2;}
	.st2{fill:#F7F7F7;}
	.st3{fill:#58B2B1;}
	.st4{fill:#59B4B3;}
</style>
<path class="st0" d="M222.8,482.8c-168.7,0-336.8,0-505,0c0-240.3,0-480.7,0-721c286.7,0,573.3,0,860,0c0,240.3,0,480.7,0,721
	C459.6,482.8,341.4,482.8,222.8,482.8 M445.8,239.3c18.7-48.6,25.8-98.8,20.1-150.7c-4.7-42.7-17.2-82.8-38-120.3
	C395.5-89.9,349.5-134,290.2-163.7c-52.1-26.1-107.5-37-165.8-32.6c-24,1.8-47.5,6-70.4,13.1C-9.9-163.3-62.6-127-104-74.6
	c-41.6,52.7-63.8,113.1-68,180c-1.7,27.5,0.4,54.9,6.2,81.9c16.7,77.5,56.1,141.1,119.1,189.2c67.3,51.4,143.6,72.7,228.1,64.3
	c37.6-3.8,73.4-14,107.2-30.9C362.2,373,414.4,316.2,445.8,239.3z"/>
<g>
	<path class="st1" d="M38.8,27.2c-1.9,4.7-5.2,8.2-9.7,10.5c-2.1,1-4.3,1.7-6.6,1.9c-5.2,0.5-9.9-0.8-14.1-4
		c-3.9-3-6.3-6.9-7.4-11.7c-0.4-1.7-0.5-3.4-0.4-5.1C0.9,14.8,2.3,11,4.9,7.8c2.6-3.2,5.8-5.5,9.8-6.7C16,0.6,17.5,0.4,19,0.3
		c3.6-0.3,7,0.4,10.2,2c3.7,1.8,6.5,4.6,8.5,8.2c1.3,2.3,2.1,4.8,2.4,7.4C40.4,21.1,40,24.2,38.8,27.2 M17.5,37.9
		c1.9,0.3,3.9,0.3,5.8,0c4.4-0.7,8.1-2.8,11-6.3c3.6-4.3,4.9-9.2,4-14.7c-0.7-4.4-2.8-8-6.3-10.8c-4.3-3.6-9.2-4.9-14.7-4
		C13,2.8,9.3,4.9,6.5,8.4c-3.5,4.2-4.8,9-4,14.3c0.5,3.7,2.1,6.9,4.7,9.7C9.9,35.4,13.4,37.2,17.5,37.9z"/>
	<path class="st2" d="M17.5,37.9c-4.1-0.7-7.5-2.6-10.3-5.6c-2.5-2.7-4.1-6-4.7-9.7C1.7,17.3,3,12.5,6.5,8.4
		C9.3,4.9,13,2.8,17.3,2.1c5.5-0.9,10.4,0.4,14.7,4c3.4,2.8,5.5,6.5,6.3,10.8c0.9,5.5-0.4,10.4-4,14.7c-2.9,3.5-6.6,5.5-11,6.3
		C21.4,38.2,19.4,38.2,17.5,37.9 M24.6,25.4c-0.3-0.3-0.6-0.6-0.9-0.9c-0.1-0.1-0.2-0.1-0.4-0.1c-0.2,0.1-0.4,0.2-0.6,0.2
		c-0.9,0.2-1.7,0-2.3-0.6c-0.9-0.8-1.8-1.6-2.6-2.4c-0.6-0.6-1.1-1.3-1.6-2c-0.5-0.8-0.6-1.7-0.1-2.6c0.1-0.2,0-0.3-0.1-0.4
		c-1.5-1.5-3.1-3.1-4.6-4.6c-0.1-0.1-0.1-0.1-0.2-0.1c-1.2,2.5-1.4,4-0.6,6.2c1.1,3,2.8,5.5,5.1,7.6c1.7,1.6,3.6,2.9,5.7,3.8
		c1.7,0.7,3.4,1.1,5.2,0.5c0.7-0.2,1.3-0.5,2.1-0.8C27.2,27.9,25.9,26.7,24.6,25.4 M13.7,12.3c1.1,1.1,2.2,2.2,3.2,3.2
		c0.2,0.2,0.3,0.2,0.5,0c0.6-0.6,0.8-1.3,0.7-2.1c-0.2-1.2-0.6-2.2-1.4-3.1c-1.3-1.5-3.4-1.8-4.8,0.2C12.6,11.1,13.1,11.7,13.7,12.3
		 M29.9,23.5c-0.9-0.7-2-1.2-3.1-1.3c-1-0.1-1.8,0.3-2.2,0.9c1.8,1.8,3.5,3.5,5.2,5.3c0.2-0.2,0.5-0.5,0.7-0.8
		c0.2-0.3,0.4-0.7,0.5-1C31.3,25.3,30.9,24.3,29.9,23.5 M23.9,23.9c-0.2,0.1,0,0.2,0.1,0.3c1.5,1.6,3.1,3.1,4.7,4.7
		c0.1,0.1,0.1,0.1,0.2,0.2c0.2-0.1,0.3-0.2,0.4-0.3c-1.7-1.7-3.4-3.4-5.1-5.1C24.1,23.7,24,23.8,23.9,23.9 M12,12.3
		c1.4,1.4,2.8,2.8,4.2,4.2c0.2-0.1,0.3-0.2,0.4-0.3c-1.7-1.7-3.4-3.4-5.1-5.1c-0.1,0.1-0.2,0.3-0.3,0.5C11.5,11.8,11.8,12.1,12,12.3
		z"/>
	<path class="st3" d="M24.6,25.4c1.3,1.3,2.6,2.6,3.9,3.9c-0.7,0.3-1.4,0.5-2.1,0.8c-1.8,0.6-3.5,0.2-5.2-0.5
		c-2.1-0.9-4-2.2-5.7-3.8c-2.3-2.1-4.1-4.7-5.1-7.6c-0.8-2.2-0.6-3.7,0.6-6.2c0.1,0.1,0.1,0.1,0.2,0.1c1.5,1.5,3.1,3.1,4.6,4.6
		c0.1,0.1,0.2,0.2,0.1,0.4c-0.5,0.9-0.4,1.8,0.1,2.6c0.5,0.7,1,1.4,1.6,2c0.8,0.8,1.7,1.7,2.6,2.4c0.7,0.5,1.4,0.8,2.3,0.6
		c0.2-0.1,0.4-0.1,0.6-0.2c0.2-0.1,0.3-0.1,0.4,0.1C24,24.7,24.3,25.1,24.6,25.4z"/>
	<path class="st3" d="M13.7,12.3c-0.6-0.6-1.2-1.2-1.7-1.7c1.4-2,3.6-1.7,4.8-0.2c0.7,0.9,1.2,1.9,1.4,3.1c0.1,0.8-0.1,1.5-0.7,2.1
		c-0.2,0.2-0.3,0.2-0.5,0C15.9,14.5,14.8,13.4,13.7,12.3z"/>
	<path class="st3" d="M29.9,23.5c0.9,0.8,1.3,1.8,1.2,2.9c-0.1,0.4-0.3,0.7-0.5,1c-0.2,0.3-0.5,0.6-0.7,0.8
		c-1.8-1.8-3.5-3.5-5.2-5.3c0.4-0.7,1.2-1,2.2-0.9C28,22.3,29,22.8,29.9,23.5z"/>
	<path class="st4" d="M23.9,23.9c0.1-0.1,0.2-0.2,0.2-0.2c1.7,1.7,3.4,3.4,5.1,5.1c-0.1,0.1-0.3,0.2-0.4,0.3
		c-0.1-0.1-0.1-0.1-0.2-0.2c-1.6-1.6-3.1-3.1-4.7-4.7C23.9,24.1,23.7,24.1,23.9,23.9z"/>
	<path class="st4" d="M12,12.3c-0.3-0.3-0.5-0.5-0.8-0.7c0.1-0.2,0.2-0.3,0.3-0.5c1.7,1.7,3.4,3.4,5.1,5.1c-0.1,0.1-0.2,0.2-0.4,0.3
		C14.9,15.1,13.5,13.7,12,12.3z"/>
</g>
</svg>
